<mxfile host="app.diagrams.net" modified="2021-02-08T23:09:54.321Z" agent="5.0 (Macintosh; Intel Mac OS X 10_15_6) AppleWebKit/605.1.15 (KHTML, like Gecko) Version/14.0.3 Safari/605.1.15" etag="F2WcPwNt_RTE0XvQmu2A" version="14.2.9" type="github">
  <diagram id="lamqM21WEhPO7RY_PFyA" name="Page-1">
    <mxGraphModel dx="858" dy="871" grid="1" gridSize="10" guides="1" tooltips="1" connect="1" arrows="1" fold="1" page="1" pageScale="1" pageWidth="827" pageHeight="1169" math="0" shadow="0">
      <root>
        <mxCell id="0" />
        <mxCell id="1" parent="0" />
        <mxCell id="bdwbAZbaEgQjwI4cp7zP-87" value="LSTM&amp;nbsp;layers" style="rounded=1;whiteSpace=wrap;html=1;shadow=0;sketch=0;glass=0;fillColor=#f5f5f5;fontColor=#333333;strokeColor=none;align=center;spacingRight=7;spacingLeft=12;verticalAlign=top;" vertex="1" parent="1">
          <mxGeometry x="120" y="310" width="450" height="170" as="geometry" />
        </mxCell>
        <mxCell id="bdwbAZbaEgQjwI4cp7zP-10" style="edgeStyle=orthogonalEdgeStyle;rounded=0;orthogonalLoop=1;jettySize=auto;html=1;entryX=0;entryY=0.5;entryDx=0;entryDy=0;strokeColor=#949494;" edge="1" parent="1" source="bdwbAZbaEgQjwI4cp7zP-2" target="bdwbAZbaEgQjwI4cp7zP-3">
          <mxGeometry relative="1" as="geometry" />
        </mxCell>
        <mxCell id="bdwbAZbaEgQjwI4cp7zP-26" style="edgeStyle=orthogonalEdgeStyle;rounded=0;orthogonalLoop=1;jettySize=auto;html=1;strokeColor=#949494;" edge="1" parent="1" source="bdwbAZbaEgQjwI4cp7zP-2" target="bdwbAZbaEgQjwI4cp7zP-16">
          <mxGeometry relative="1" as="geometry" />
        </mxCell>
        <mxCell id="bdwbAZbaEgQjwI4cp7zP-2" value="LSTM&lt;br&gt;cell" style="rounded=1;whiteSpace=wrap;html=1;" vertex="1" parent="1">
          <mxGeometry x="130" y="420" width="50" height="50" as="geometry" />
        </mxCell>
        <mxCell id="bdwbAZbaEgQjwI4cp7zP-11" style="edgeStyle=orthogonalEdgeStyle;rounded=0;orthogonalLoop=1;jettySize=auto;html=1;entryX=0;entryY=0.5;entryDx=0;entryDy=0;strokeColor=#949494;" edge="1" parent="1" source="bdwbAZbaEgQjwI4cp7zP-3" target="bdwbAZbaEgQjwI4cp7zP-4">
          <mxGeometry relative="1" as="geometry" />
        </mxCell>
        <mxCell id="bdwbAZbaEgQjwI4cp7zP-27" style="edgeStyle=orthogonalEdgeStyle;rounded=0;orthogonalLoop=1;jettySize=auto;html=1;entryX=0.5;entryY=1;entryDx=0;entryDy=0;strokeColor=#949494;" edge="1" parent="1" source="bdwbAZbaEgQjwI4cp7zP-3" target="bdwbAZbaEgQjwI4cp7zP-18">
          <mxGeometry relative="1" as="geometry" />
        </mxCell>
        <mxCell id="bdwbAZbaEgQjwI4cp7zP-3" value="LSTM&lt;br&gt;cell" style="rounded=1;whiteSpace=wrap;html=1;" vertex="1" parent="1">
          <mxGeometry x="200" y="420" width="50" height="50" as="geometry" />
        </mxCell>
        <mxCell id="bdwbAZbaEgQjwI4cp7zP-14" style="edgeStyle=orthogonalEdgeStyle;rounded=0;orthogonalLoop=1;jettySize=auto;html=1;dashed=1;strokeColor=#949494;" edge="1" parent="1" source="bdwbAZbaEgQjwI4cp7zP-4" target="bdwbAZbaEgQjwI4cp7zP-5">
          <mxGeometry relative="1" as="geometry" />
        </mxCell>
        <mxCell id="bdwbAZbaEgQjwI4cp7zP-28" style="edgeStyle=orthogonalEdgeStyle;rounded=0;orthogonalLoop=1;jettySize=auto;html=1;strokeColor=#949494;" edge="1" parent="1" source="bdwbAZbaEgQjwI4cp7zP-4" target="bdwbAZbaEgQjwI4cp7zP-20">
          <mxGeometry relative="1" as="geometry" />
        </mxCell>
        <mxCell id="bdwbAZbaEgQjwI4cp7zP-4" value="LSTM&lt;br&gt;cell" style="rounded=1;whiteSpace=wrap;html=1;" vertex="1" parent="1">
          <mxGeometry x="270" y="420" width="50" height="50" as="geometry" />
        </mxCell>
        <mxCell id="bdwbAZbaEgQjwI4cp7zP-12" style="edgeStyle=orthogonalEdgeStyle;rounded=0;orthogonalLoop=1;jettySize=auto;html=1;strokeColor=#949494;" edge="1" parent="1" source="bdwbAZbaEgQjwI4cp7zP-5" target="bdwbAZbaEgQjwI4cp7zP-6">
          <mxGeometry relative="1" as="geometry" />
        </mxCell>
        <mxCell id="bdwbAZbaEgQjwI4cp7zP-29" style="edgeStyle=orthogonalEdgeStyle;rounded=0;orthogonalLoop=1;jettySize=auto;html=1;strokeColor=#949494;" edge="1" parent="1" source="bdwbAZbaEgQjwI4cp7zP-5" target="bdwbAZbaEgQjwI4cp7zP-22">
          <mxGeometry relative="1" as="geometry" />
        </mxCell>
        <mxCell id="bdwbAZbaEgQjwI4cp7zP-5" value="LSTM&lt;br&gt;cell" style="rounded=1;whiteSpace=wrap;html=1;" vertex="1" parent="1">
          <mxGeometry x="370" y="420" width="50" height="50" as="geometry" />
        </mxCell>
        <mxCell id="bdwbAZbaEgQjwI4cp7zP-13" style="edgeStyle=orthogonalEdgeStyle;rounded=0;orthogonalLoop=1;jettySize=auto;html=1;strokeColor=#949494;" edge="1" parent="1" source="bdwbAZbaEgQjwI4cp7zP-6" target="bdwbAZbaEgQjwI4cp7zP-7">
          <mxGeometry relative="1" as="geometry" />
        </mxCell>
        <mxCell id="bdwbAZbaEgQjwI4cp7zP-30" style="edgeStyle=orthogonalEdgeStyle;rounded=0;orthogonalLoop=1;jettySize=auto;html=1;strokeColor=#949494;" edge="1" parent="1" source="bdwbAZbaEgQjwI4cp7zP-6" target="bdwbAZbaEgQjwI4cp7zP-24">
          <mxGeometry relative="1" as="geometry" />
        </mxCell>
        <mxCell id="bdwbAZbaEgQjwI4cp7zP-6" value="LSTM&lt;br&gt;cell" style="rounded=1;whiteSpace=wrap;html=1;" vertex="1" parent="1">
          <mxGeometry x="440" y="420" width="50" height="50" as="geometry" />
        </mxCell>
        <mxCell id="bdwbAZbaEgQjwI4cp7zP-31" style="edgeStyle=orthogonalEdgeStyle;rounded=0;orthogonalLoop=1;jettySize=auto;html=1;strokeColor=#949494;" edge="1" parent="1" source="bdwbAZbaEgQjwI4cp7zP-7" target="bdwbAZbaEgQjwI4cp7zP-25">
          <mxGeometry relative="1" as="geometry" />
        </mxCell>
        <mxCell id="bdwbAZbaEgQjwI4cp7zP-7" value="LSTM&lt;br&gt;cell" style="rounded=1;whiteSpace=wrap;html=1;" vertex="1" parent="1">
          <mxGeometry x="510" y="420" width="50" height="50" as="geometry" />
        </mxCell>
        <mxCell id="bdwbAZbaEgQjwI4cp7zP-15" style="edgeStyle=orthogonalEdgeStyle;rounded=0;orthogonalLoop=1;jettySize=auto;html=1;entryX=0;entryY=0.5;entryDx=0;entryDy=0;strokeColor=#949494;" edge="1" parent="1" source="bdwbAZbaEgQjwI4cp7zP-16" target="bdwbAZbaEgQjwI4cp7zP-18">
          <mxGeometry relative="1" as="geometry" />
        </mxCell>
        <mxCell id="bdwbAZbaEgQjwI4cp7zP-71" style="edgeStyle=orthogonalEdgeStyle;rounded=0;orthogonalLoop=1;jettySize=auto;html=1;strokeColor=#949494;" edge="1" parent="1" source="bdwbAZbaEgQjwI4cp7zP-16">
          <mxGeometry relative="1" as="geometry">
            <mxPoint x="155" y="280" as="targetPoint" />
          </mxGeometry>
        </mxCell>
        <mxCell id="bdwbAZbaEgQjwI4cp7zP-16" value="LSTM&lt;br&gt;cell" style="rounded=1;whiteSpace=wrap;html=1;" vertex="1" parent="1">
          <mxGeometry x="130" y="340" width="50" height="50" as="geometry" />
        </mxCell>
        <mxCell id="bdwbAZbaEgQjwI4cp7zP-17" style="edgeStyle=orthogonalEdgeStyle;rounded=0;orthogonalLoop=1;jettySize=auto;html=1;entryX=0;entryY=0.5;entryDx=0;entryDy=0;strokeColor=#949494;" edge="1" parent="1" source="bdwbAZbaEgQjwI4cp7zP-18" target="bdwbAZbaEgQjwI4cp7zP-20">
          <mxGeometry relative="1" as="geometry" />
        </mxCell>
        <mxCell id="bdwbAZbaEgQjwI4cp7zP-70" style="edgeStyle=orthogonalEdgeStyle;rounded=0;orthogonalLoop=1;jettySize=auto;html=1;strokeColor=#949494;" edge="1" parent="1" source="bdwbAZbaEgQjwI4cp7zP-18">
          <mxGeometry relative="1" as="geometry">
            <mxPoint x="225" y="280" as="targetPoint" />
          </mxGeometry>
        </mxCell>
        <mxCell id="bdwbAZbaEgQjwI4cp7zP-18" value="LSTM&lt;br&gt;cell" style="rounded=1;whiteSpace=wrap;html=1;" vertex="1" parent="1">
          <mxGeometry x="200" y="340" width="50" height="50" as="geometry" />
        </mxCell>
        <mxCell id="bdwbAZbaEgQjwI4cp7zP-19" style="edgeStyle=orthogonalEdgeStyle;rounded=0;orthogonalLoop=1;jettySize=auto;html=1;dashed=1;strokeColor=#949494;" edge="1" parent="1" source="bdwbAZbaEgQjwI4cp7zP-20" target="bdwbAZbaEgQjwI4cp7zP-22">
          <mxGeometry relative="1" as="geometry" />
        </mxCell>
        <mxCell id="bdwbAZbaEgQjwI4cp7zP-69" style="edgeStyle=orthogonalEdgeStyle;rounded=0;orthogonalLoop=1;jettySize=auto;html=1;strokeColor=#949494;" edge="1" parent="1" source="bdwbAZbaEgQjwI4cp7zP-20">
          <mxGeometry relative="1" as="geometry">
            <mxPoint x="295" y="280" as="targetPoint" />
          </mxGeometry>
        </mxCell>
        <mxCell id="bdwbAZbaEgQjwI4cp7zP-20" value="LSTM&lt;br&gt;cell" style="rounded=1;whiteSpace=wrap;html=1;" vertex="1" parent="1">
          <mxGeometry x="270" y="340" width="50" height="50" as="geometry" />
        </mxCell>
        <mxCell id="bdwbAZbaEgQjwI4cp7zP-21" style="edgeStyle=orthogonalEdgeStyle;rounded=0;orthogonalLoop=1;jettySize=auto;html=1;strokeColor=#949494;" edge="1" parent="1" source="bdwbAZbaEgQjwI4cp7zP-22" target="bdwbAZbaEgQjwI4cp7zP-24">
          <mxGeometry relative="1" as="geometry" />
        </mxCell>
        <mxCell id="bdwbAZbaEgQjwI4cp7zP-67" style="edgeStyle=orthogonalEdgeStyle;rounded=0;orthogonalLoop=1;jettySize=auto;html=1;strokeColor=#949494;" edge="1" parent="1" source="bdwbAZbaEgQjwI4cp7zP-22">
          <mxGeometry relative="1" as="geometry">
            <mxPoint x="395" y="280" as="targetPoint" />
          </mxGeometry>
        </mxCell>
        <mxCell id="bdwbAZbaEgQjwI4cp7zP-22" value="LSTM&lt;br&gt;cell" style="rounded=1;whiteSpace=wrap;html=1;" vertex="1" parent="1">
          <mxGeometry x="370" y="340" width="50" height="50" as="geometry" />
        </mxCell>
        <mxCell id="bdwbAZbaEgQjwI4cp7zP-23" style="edgeStyle=orthogonalEdgeStyle;rounded=0;orthogonalLoop=1;jettySize=auto;html=1;strokeColor=#949494;" edge="1" parent="1" source="bdwbAZbaEgQjwI4cp7zP-24" target="bdwbAZbaEgQjwI4cp7zP-25">
          <mxGeometry relative="1" as="geometry" />
        </mxCell>
        <mxCell id="bdwbAZbaEgQjwI4cp7zP-66" style="edgeStyle=orthogonalEdgeStyle;rounded=0;orthogonalLoop=1;jettySize=auto;html=1;strokeColor=#949494;" edge="1" parent="1" source="bdwbAZbaEgQjwI4cp7zP-24">
          <mxGeometry relative="1" as="geometry">
            <mxPoint x="465" y="280" as="targetPoint" />
          </mxGeometry>
        </mxCell>
        <mxCell id="bdwbAZbaEgQjwI4cp7zP-24" value="LSTM&lt;br&gt;cell" style="rounded=1;whiteSpace=wrap;html=1;" vertex="1" parent="1">
          <mxGeometry x="440" y="340" width="50" height="50" as="geometry" />
        </mxCell>
        <mxCell id="bdwbAZbaEgQjwI4cp7zP-65" style="edgeStyle=orthogonalEdgeStyle;rounded=0;orthogonalLoop=1;jettySize=auto;html=1;strokeColor=#949494;" edge="1" parent="1" source="bdwbAZbaEgQjwI4cp7zP-25">
          <mxGeometry relative="1" as="geometry">
            <mxPoint x="535" y="280" as="targetPoint" />
          </mxGeometry>
        </mxCell>
        <mxCell id="bdwbAZbaEgQjwI4cp7zP-25" value="LSTM&lt;br&gt;cell" style="rounded=1;whiteSpace=wrap;html=1;" vertex="1" parent="1">
          <mxGeometry x="510" y="340" width="50" height="50" as="geometry" />
        </mxCell>
        <mxCell id="bdwbAZbaEgQjwI4cp7zP-72" style="edgeStyle=orthogonalEdgeStyle;rounded=0;orthogonalLoop=1;jettySize=auto;html=1;entryX=0.5;entryY=1;entryDx=0;entryDy=0;fillColor=#f5f5f5;strokeColor=#949494;" edge="1" parent="1" source="bdwbAZbaEgQjwI4cp7zP-32" target="bdwbAZbaEgQjwI4cp7zP-63">
          <mxGeometry relative="1" as="geometry" />
        </mxCell>
        <mxCell id="bdwbAZbaEgQjwI4cp7zP-32" value="concatenation layer" style="rounded=1;whiteSpace=wrap;html=1;shadow=0;sketch=0;glass=0;fillColor=#f5f5f5;fontColor=#333333;strokeColor=none;" vertex="1" parent="1">
          <mxGeometry x="120" y="250" width="450" height="30" as="geometry" />
        </mxCell>
        <mxCell id="bdwbAZbaEgQjwI4cp7zP-47" style="edgeStyle=orthogonalEdgeStyle;curved=1;orthogonalLoop=1;jettySize=auto;html=1;strokeColor=#949494;" edge="1" parent="1" source="bdwbAZbaEgQjwI4cp7zP-40" target="bdwbAZbaEgQjwI4cp7zP-5">
          <mxGeometry relative="1" as="geometry" />
        </mxCell>
        <mxCell id="bdwbAZbaEgQjwI4cp7zP-40" value="t-3" style="rounded=1;whiteSpace=wrap;html=1;fillColor=#fff2cc;strokeColor=none;" vertex="1" parent="1">
          <mxGeometry x="370" y="510" width="50" height="20" as="geometry" />
        </mxCell>
        <mxCell id="bdwbAZbaEgQjwI4cp7zP-61" style="edgeStyle=orthogonalEdgeStyle;curved=1;orthogonalLoop=1;jettySize=auto;html=1;strokeColor=#949494;" edge="1" parent="1" source="bdwbAZbaEgQjwI4cp7zP-53" target="bdwbAZbaEgQjwI4cp7zP-6">
          <mxGeometry relative="1" as="geometry" />
        </mxCell>
        <mxCell id="bdwbAZbaEgQjwI4cp7zP-53" value="t-2" style="rounded=1;whiteSpace=wrap;html=1;fillColor=#fff2cc;strokeColor=none;" vertex="1" parent="1">
          <mxGeometry x="440" y="510" width="50" height="20" as="geometry" />
        </mxCell>
        <mxCell id="bdwbAZbaEgQjwI4cp7zP-62" style="edgeStyle=orthogonalEdgeStyle;curved=1;orthogonalLoop=1;jettySize=auto;html=1;entryX=0.5;entryY=1;entryDx=0;entryDy=0;strokeColor=#949494;" edge="1" parent="1" source="bdwbAZbaEgQjwI4cp7zP-54" target="bdwbAZbaEgQjwI4cp7zP-7">
          <mxGeometry relative="1" as="geometry" />
        </mxCell>
        <mxCell id="bdwbAZbaEgQjwI4cp7zP-54" value="t-1" style="rounded=1;whiteSpace=wrap;html=1;fillColor=#fff2cc;strokeColor=none;" vertex="1" parent="1">
          <mxGeometry x="510" y="510" width="50" height="20" as="geometry" />
        </mxCell>
        <mxCell id="bdwbAZbaEgQjwI4cp7zP-60" style="edgeStyle=orthogonalEdgeStyle;curved=1;orthogonalLoop=1;jettySize=auto;html=1;strokeColor=#949494;" edge="1" parent="1" source="bdwbAZbaEgQjwI4cp7zP-55" target="bdwbAZbaEgQjwI4cp7zP-2">
          <mxGeometry relative="1" as="geometry" />
        </mxCell>
        <mxCell id="bdwbAZbaEgQjwI4cp7zP-55" value="t-T" style="rounded=1;whiteSpace=wrap;html=1;fillColor=#fff2cc;strokeColor=none;" vertex="1" parent="1">
          <mxGeometry x="130" y="510" width="50" height="20" as="geometry" />
        </mxCell>
        <mxCell id="bdwbAZbaEgQjwI4cp7zP-59" style="edgeStyle=orthogonalEdgeStyle;curved=1;orthogonalLoop=1;jettySize=auto;html=1;entryX=0.5;entryY=1;entryDx=0;entryDy=0;strokeColor=#949494;" edge="1" parent="1" source="bdwbAZbaEgQjwI4cp7zP-56" target="bdwbAZbaEgQjwI4cp7zP-3">
          <mxGeometry relative="1" as="geometry" />
        </mxCell>
        <mxCell id="bdwbAZbaEgQjwI4cp7zP-56" value="t-T+1" style="rounded=1;whiteSpace=wrap;html=1;fillColor=#fff2cc;strokeColor=none;" vertex="1" parent="1">
          <mxGeometry x="200" y="510" width="50" height="20" as="geometry" />
        </mxCell>
        <mxCell id="bdwbAZbaEgQjwI4cp7zP-58" style="edgeStyle=orthogonalEdgeStyle;curved=1;orthogonalLoop=1;jettySize=auto;html=1;entryX=0.5;entryY=1;entryDx=0;entryDy=0;strokeColor=#949494;" edge="1" parent="1" source="bdwbAZbaEgQjwI4cp7zP-57" target="bdwbAZbaEgQjwI4cp7zP-4">
          <mxGeometry relative="1" as="geometry" />
        </mxCell>
        <mxCell id="bdwbAZbaEgQjwI4cp7zP-57" value="t-T+2" style="rounded=1;whiteSpace=wrap;html=1;fillColor=#fff2cc;strokeColor=none;" vertex="1" parent="1">
          <mxGeometry x="270" y="510" width="50" height="20" as="geometry" />
        </mxCell>
        <mxCell id="bdwbAZbaEgQjwI4cp7zP-80" style="edgeStyle=orthogonalEdgeStyle;rounded=0;orthogonalLoop=1;jettySize=auto;html=1;entryX=0.5;entryY=1;entryDx=0;entryDy=0;strokeColor=#949494;" edge="1" parent="1" source="bdwbAZbaEgQjwI4cp7zP-63" target="bdwbAZbaEgQjwI4cp7zP-76">
          <mxGeometry relative="1" as="geometry" />
        </mxCell>
        <mxCell id="bdwbAZbaEgQjwI4cp7zP-81" style="edgeStyle=orthogonalEdgeStyle;rounded=0;orthogonalLoop=1;jettySize=auto;html=1;entryX=0.5;entryY=1;entryDx=0;entryDy=0;strokeColor=#949494;" edge="1" parent="1" source="bdwbAZbaEgQjwI4cp7zP-63" target="bdwbAZbaEgQjwI4cp7zP-75">
          <mxGeometry relative="1" as="geometry" />
        </mxCell>
        <mxCell id="bdwbAZbaEgQjwI4cp7zP-82" style="edgeStyle=orthogonalEdgeStyle;rounded=0;orthogonalLoop=1;jettySize=auto;html=1;entryX=0.5;entryY=1;entryDx=0;entryDy=0;strokeColor=#949494;" edge="1" parent="1" source="bdwbAZbaEgQjwI4cp7zP-63" target="bdwbAZbaEgQjwI4cp7zP-74">
          <mxGeometry relative="1" as="geometry" />
        </mxCell>
        <mxCell id="bdwbAZbaEgQjwI4cp7zP-83" style="edgeStyle=orthogonalEdgeStyle;rounded=0;orthogonalLoop=1;jettySize=auto;html=1;entryX=0.5;entryY=1;entryDx=0;entryDy=0;strokeColor=#949494;" edge="1" parent="1" source="bdwbAZbaEgQjwI4cp7zP-63" target="bdwbAZbaEgQjwI4cp7zP-79">
          <mxGeometry relative="1" as="geometry" />
        </mxCell>
        <mxCell id="bdwbAZbaEgQjwI4cp7zP-84" style="edgeStyle=orthogonalEdgeStyle;rounded=0;orthogonalLoop=1;jettySize=auto;html=1;entryX=0.5;entryY=1;entryDx=0;entryDy=0;strokeColor=#949494;" edge="1" parent="1" source="bdwbAZbaEgQjwI4cp7zP-63" target="bdwbAZbaEgQjwI4cp7zP-78">
          <mxGeometry relative="1" as="geometry" />
        </mxCell>
        <mxCell id="bdwbAZbaEgQjwI4cp7zP-85" style="edgeStyle=orthogonalEdgeStyle;rounded=0;orthogonalLoop=1;jettySize=auto;html=1;entryX=0.5;entryY=1;entryDx=0;entryDy=0;strokeColor=#949494;" edge="1" parent="1" source="bdwbAZbaEgQjwI4cp7zP-63" target="bdwbAZbaEgQjwI4cp7zP-77">
          <mxGeometry relative="1" as="geometry" />
        </mxCell>
        <mxCell id="bdwbAZbaEgQjwI4cp7zP-63" value="linear layer" style="rounded=1;whiteSpace=wrap;html=1;shadow=0;sketch=0;glass=0;fillColor=#f5f5f5;fontColor=#333333;strokeColor=none;" vertex="1" parent="1">
          <mxGeometry x="120" y="190" width="450" height="30" as="geometry" />
        </mxCell>
        <mxCell id="bdwbAZbaEgQjwI4cp7zP-74" value="t-2" style="rounded=1;whiteSpace=wrap;html=1;fillColor=#fff2cc;strokeColor=none;" vertex="1" parent="1">
          <mxGeometry x="370" y="120" width="50" height="20" as="geometry" />
        </mxCell>
        <mxCell id="bdwbAZbaEgQjwI4cp7zP-75" value="t-1" style="rounded=1;whiteSpace=wrap;html=1;fillColor=#fff2cc;strokeColor=none;" vertex="1" parent="1">
          <mxGeometry x="440" y="120" width="50" height="20" as="geometry" />
        </mxCell>
        <mxCell id="bdwbAZbaEgQjwI4cp7zP-76" value="t" style="rounded=1;whiteSpace=wrap;html=1;fillColor=#d5e8d4;strokeColor=none;" vertex="1" parent="1">
          <mxGeometry x="510" y="120" width="50" height="20" as="geometry" />
        </mxCell>
        <mxCell id="bdwbAZbaEgQjwI4cp7zP-77" value="t-T+1" style="rounded=1;whiteSpace=wrap;html=1;fillColor=#fff2cc;strokeColor=none;" vertex="1" parent="1">
          <mxGeometry x="130" y="120" width="50" height="20" as="geometry" />
        </mxCell>
        <mxCell id="bdwbAZbaEgQjwI4cp7zP-78" value="t-T+2" style="rounded=1;whiteSpace=wrap;html=1;fillColor=#fff2cc;strokeColor=none;" vertex="1" parent="1">
          <mxGeometry x="200" y="120" width="50" height="20" as="geometry" />
        </mxCell>
        <mxCell id="bdwbAZbaEgQjwI4cp7zP-79" value="t-T+3" style="rounded=1;whiteSpace=wrap;html=1;fillColor=#fff2cc;strokeColor=none;" vertex="1" parent="1">
          <mxGeometry x="270" y="120" width="50" height="20" as="geometry" />
        </mxCell>
        <mxCell id="bdwbAZbaEgQjwI4cp7zP-86" value="..." style="text;html=1;strokeColor=none;fillColor=none;align=center;verticalAlign=middle;whiteSpace=wrap;rounded=0;" vertex="1" parent="1">
          <mxGeometry x="325" y="120" width="40" height="20" as="geometry" />
        </mxCell>
      </root>
    </mxGraphModel>
  </diagram>
</mxfile>
